<svg width="64" height="64" viewBox="0 0 64 64" fill="none" xmlns="http://www.w3.org/2000/svg">
  <!-- Gradient background -->
  <defs>
    <linearGradient id="bgGradient" x1="0%" y1="0%" x2="100%" y2="100%">
      <stop offset="0%" style="stop-color:#9b5de5;stop-opacity:1" />
      <stop offset="100%" style="stop-color:#f15bb5;stop-opacity:1" />
    </linearGradient>
  </defs>
  
  <!-- Background rounded square -->
  <rect width="64" height="64" rx="12" fill="url(#bgGradient)"/>
  
  <!-- Palette shape -->
  <path d="M 12 20 Q 12 16 16 16 L 42 16 Q 48 16 50 22 Q 52 28 52 32 Q 52 38 50 42 Q 48 46 42 48 L 36 48 Q 32 48 32 44 L 32 40 Q 32 38 34 38 L 38 38 Q 40 38 40 36 Q 40 34 38 34 L 16 34 Q 12 34 12 30 L 12 20 Z" fill="#F5E6D3" stroke="white" stroke-width="1.5"/>
  
  <!-- Paint blobs -->
  <!-- Pink blob -->
  <circle cx="20" cy="24" r="3.5" fill="#f15bb5"/>
  
  <!-- Purple blob -->
  <circle cx="30" cy="22" r="3" fill="#9b5de5"/>
  
  <!-- Teal blob -->
  <circle cx="18" cy="30" r="2.8" fill="#00bbf9"/>
  
  <!-- Blue blob -->
  <circle cx="25" cy="29" r="2.8" fill="#4361ee"/>
  
  <!-- Yellow blob -->
  <circle cx="34" cy="28" r="3.2" fill="#fee440"/>
  
  <!-- Thumb hole -->
  <ellipse cx="43" cy="38" rx="4" ry="5" fill="url(#bgGradient)"/>
</svg>

